<?xml version="1.0" encoding="UTF-8"?>
<svg width="512" height="512" viewBox="0 0 512 512" xmlns="http://www.w3.org/2000/svg">
  <!-- Client app launcher: rose gradient + ÑACURUTU owl + SOS ribbon -->
  <defs>
    <linearGradient id="bg" x1="0" y1="0" x2="0" y2="1">
      <stop offset="0" stop-color="#e11d48"/>
      <stop offset="1" stop-color="#881337"/>
    </linearGradient>
  </defs>

  <rect width="512" height="512" fill="url(#bg)"/>

  <!-- Owl upper 2/3 -->
  <g transform="translate(96,40) scale(5)">
    <path d="M32 58c-11 0-19-8-19-21 0-10 5-17 12-21 2-1 2-2 2-4 0-2 2-4 5-4s5 2 5 4c0 2 0 3 2 4 7 4 12 11 12 21 0 13-8 21-19 21z"
          fill="#18181b" stroke="#fff" stroke-width="2.5"/>
    <path d="M16 20 L10 8 L22 14 Z" fill="#fff"/>
    <path d="M48 20 L54 8 L42 14 Z" fill="#fff"/>
    <circle cx="24" cy="30" r="7" fill="#fbbf24"/>
    <circle cx="24" cy="30" r="3" fill="#09090b"/>
    <circle cx="40" cy="30" r="7" fill="#fbbf24"/>
    <circle cx="40" cy="30" r="3" fill="#09090b"/>
    <path d="M32 36 L28 42 L36 42 Z" fill="#fbbf24"/>
    <path d="M32 44 Q28 48 32 52 Q36 48 32 44" fill="none" stroke="#52525b" stroke-width="1.5"/>
  </g>

  <!-- SOS ribbon -->
  <rect x="56" y="410" width="400" height="72" rx="12" fill="#fff"/>
  <rect x="56" y="410" width="400" height="72" rx="12" fill="none" stroke="#fbbf24" stroke-width="3"/>
  <text x="256" y="466" text-anchor="middle"
        font-family="Arial Black, Helvetica, sans-serif" font-weight="900"
        font-size="66" fill="#e11d48" letter-spacing="10">SOS</text>
</svg>
